<?xml version="1.0" encoding="UTF-8" standalone="no"?>
<svg
   xmlns:dc="http://purl.org/dc/elements/1.1/"
   xmlns:cc="http://creativecommons.org/ns#"
   xmlns:rdf="http://www.w3.org/1999/02/22-rdf-syntax-ns#"
   xmlns:svg="http://www.w3.org/2000/svg"
   xmlns="http://www.w3.org/2000/svg"
   xmlns:sodipodi="http://sodipodi.sourceforge.net/DTD/sodipodi-0.dtd"
   xmlns:inkscape="http://www.inkscape.org/namespaces/inkscape"
   inkscape:version="1.0 (4035a4f, 2020-05-01)"
   sodipodi:docname="lesavoir.svg"
   id="svg119"
   version="1.1"
   viewBox="0 0 210 297"
   height="297mm"
   width="210mm">
  <defs
     id="defs113" />
  <sodipodi:namedview
     inkscape:window-maximized="0"
     inkscape:window-y="23"
     inkscape:window-x="34"
     inkscape:window-height="729"
     inkscape:window-width="1246"
     showgrid="false"
     inkscape:document-rotation="0"
     inkscape:current-layer="text10-6"
     inkscape:document-units="mm"
     inkscape:cy="200.26458"
     inkscape:cx="352.08581"
     inkscape:zoom="1.0712908"
     inkscape:pageshadow="2"
     inkscape:pageopacity="0.0"
     borderopacity="1.0"
     bordercolor="#666666"
     pagecolor="#ffffff"
     id="base" />
  <metadata
     id="metadata116">
    <rdf:RDF>
      <cc:Work
         rdf:about="">
        <dc:format>image/svg+xml</dc:format>
        <dc:type
           rdf:resource="http://purl.org/dc/dcmitype/StillImage" />
      </cc:Work>
    </rdf:RDF>
  </metadata>
  <g
     id="layer1"
     inkscape:groupmode="layer"
     inkscape:label="Layer 1">
    <g
       aria-label="LE   SAVOIR"
       transform="translate(14.851659,-11.857426)"
       id="text10-6"
       style="font-style:normal;font-weight:normal;font-size:35.2778px;line-height:1.25;font-family:sans-serif;letter-spacing:-2.64583px;word-spacing:-0.0132292px;white-space:pre;shape-inside:url(#rect12-3);fill:#000000;fill-opacity:1;stroke:none">
      <path
         d="m 33.704032,54.591421 q 0,0.917223 -0.09494,3.033891 h -0.34811 q -0.189878,0 -0.917743,-0.07056 -0.727865,-0.07055 -1.645607,-0.07055 l -13.16486,-0.105835 q -0.537986,0 -0.537986,-0.3175 0,-0.246945 0.854449,-0.3175 1.20256,-0.07056 1.424083,-0.282223 0.253171,-0.246944 0.253171,-1.340556 V 35.294463 q 0,-1.305278 -0.253171,-1.516945 -0.221523,-0.211667 -1.677253,-0.211667 -0.601279,0 -0.601279,-0.388056 0,-0.3175 0.379755,-0.3175 h 0.284817 q 1.044328,0.105834 4.145665,0.105834 0.284816,0 1.10762,-0.03528 0.822803,-0.07056 1.360791,-0.07056 h 0.348109 q 0.569633,0 0.569633,0.352778 0,0.211667 -0.189877,0.282223 -0.158232,0.03528 -1.075975,0.07055 -0.917742,0.03528 -1.10762,0.352778 -0.158232,0.282223 -0.158232,1.834446 v 20.813903 q 0.854451,0.03528 2.373473,0.03528 3.702616,0 5.221639,-0.423334 1.519022,-0.423334 2.057009,-1.587501 0.537987,-1.164168 0.632926,-3.139724 0.03165,-0.458612 0.379755,-0.458612 0.411403,0 0.379756,0.529167 l -0.03165,0.881945 q 0,0.07056 0,0.3175 0.03165,0.246945 0.03165,0.49389 z"
         style="font-style:normal;font-variant:normal;font-weight:normal;font-stretch:normal;font-family:'Bodoni 72 Oldstyle';-inkscape-font-specification:'Bodoni 72 Oldstyle';fill:#999999;stroke-width:0.947132"
         id="path57" />
      <path
         d="m 49.414939,51.663363 q 0,0.141112 -0.0633,1.728613 -0.06329,1.587501 -0.06329,3.033891 v 1.164167 q -3.101337,-0.176389 -12.278763,-0.176389 -1.10762,0 -2.183595,0.03528 -1.075973,0 -1.455729,0 h -0.316463 q -0.60128,0 -0.60128,-0.3175 0,-0.211667 0.189878,-0.246945 0.09494,0 1.202559,-0.105833 0.822804,-0.07056 0.981035,-0.388056 0.189878,-0.3175 0.189878,-1.658057 V 34.906408 q 0,-1.023057 -0.284816,-1.199446 -0.25317,-0.211666 -1.7089,-0.211666 -0.506341,0 -0.506341,-0.317501 0,-0.3175 0.696218,-0.3175 l 5.411518,0.03528 q 0.284816,0 3.576031,-0.03528 3.291214,0 4.430481,0 0.949389,0 1.740546,-0.141111 0.0633,1.516945 0.284818,4.198058 l 0.126585,1.516946 q 0.03165,0.176389 0.03165,0.458611 0,0.352778 -0.284818,0.352778 -0.348108,0 -0.50634,-0.881945 -0.60128,-3.175002 -1.96207,-4.021669 -1.012682,-0.635001 -5.316578,-0.635001 h -2.594997 v 10.336396 h 0.759512 q 3.544385,0 4.303896,-0.599722 0.791158,-0.599723 1.075974,-3.492503 0.0633,-0.740834 0.34811,-0.740834 0.348109,0 0.348109,0.635001 0,0.635 -0.0633,1.869723 -0.0633,1.234723 -0.0633,1.869724 0,3.774725 0.126586,5.185837 0.03165,0.352778 0.03165,0.599722 0,0.458612 -0.348108,0.458612 -0.221525,0 -0.316463,-0.282223 -0.0633,-0.3175 -0.253171,-1.975557 -0.25317,-2.08139 -1.550669,-2.575279 -0.569633,-0.211667 -2.974751,-0.211667 h -1.424084 v 11.853341 q 6.962185,0 8.164744,-0.3175 2.088656,-0.529167 2.373472,-4.515558 0.0633,-0.881945 0.411403,-0.881945 0.316463,0 0.316463,0.740833 z"
         style="font-style:normal;font-variant:normal;font-weight:normal;font-stretch:normal;font-family:'Bodoni 72 Oldstyle';-inkscape-font-specification:'Bodoni 72 Oldstyle';fill:#999999;stroke-width:0.947132"
         id="path59" />
      <path
         d="m 65.222773,50.499196 q 0,3.033891 -2.088655,5.185837 -2.05701,2.116668 -4.968468,2.116668 -1.708901,0 -4.082373,-1.164168 -0.632926,-0.3175 -0.949389,-0.3175 -0.379755,0 -0.474694,1.023056 -0.03165,0.529167 -0.411402,0.529167 -0.316463,0 -0.316463,-0.423333 0,-0.282223 0.03165,-0.423334 0.253171,-2.151946 0.253171,-3.986391 0,-0.352778 -0.0633,-1.975557 -0.03165,-0.211667 -0.03165,-0.564445 0,-0.529167 0.379755,-0.529167 0.316463,0 0.443048,0.846667 0.822804,6.279449 5.348224,6.279449 1.930424,0 2.974752,-1.199445 1.075974,-1.234724 1.075974,-3.457225 0,-1.975557 -1.044328,-3.351391 -1.012682,-1.411112 -3.512739,-2.786946 -3.006398,-1.658057 -4.177311,-3.21028 -1.170912,-1.552224 -1.170912,-3.845281 0,-2.928057 1.677253,-4.833059 1.7089,-1.905001 4.303896,-1.905001 1.075974,0 2.974752,0.81139 0.664572,0.282222 0.981035,0.282222 0.34811,0 0.443048,-0.141111 0.126586,-0.141111 0.221524,-0.740834 0.0633,-0.352778 0.34811,-0.352778 0.316463,0 0.316463,0.423334 0,0.282222 -0.03165,0.423333 -0.09494,0.846667 -0.09494,2.046113 0,1.693334 0.158232,2.681113 l 0.03165,0.564444 q 0.03165,0.388056 -0.284817,0.388056 -0.348109,0 -0.474694,-0.811389 -0.34811,-2.081391 -1.645607,-3.457225 -1.297498,-1.411112 -2.911459,-1.411112 -1.582315,0 -2.531704,1.12889 -0.917743,1.128889 -0.917743,3.069169 0,2.257779 1.360791,3.633613 0.759511,0.776112 3.291214,2.187224 2.974753,1.658056 4.27225,3.386669 1.297499,1.693334 1.297499,3.880558 z"
         style="font-style:normal;font-variant:normal;font-weight:normal;font-stretch:normal;font-family:'Bodoni 72 Oldstyle';-inkscape-font-specification:'Bodoni 72 Oldstyle';stroke-width:0.947132"
         id="path61" />
      <path
         d="m 84.243688,57.131423 q 0,0.3175 -0.474695,0.3175 -0.316463,0 -0.569633,-0.03528 l -4.01908,-0.07056 -4.019079,0.07056 q -0.221524,0.03528 -0.474695,0.03528 -0.632926,0 -0.632926,-0.352778 0,-0.388056 0.854451,-0.388056 2.784874,-0.03528 2.784874,-0.635 0,-0.03528 -0.0633,-0.282223 l -0.25317,-0.952501 -0.158232,-0.493889 Q 76.93339,53.250864 75.825769,49.511417 h -6.772307 q -1.898777,5.644449 -1.898777,6.491116 0,0.493889 0.379755,0.599723 0.09494,0.03528 1.582315,0.141111 0.917743,0.03528 0.917743,0.352778 0,0.352778 -0.822804,0.352778 -1.45573,0 -3.386154,-0.141111 -0.474694,-0.03528 -0.981035,-0.03528 -0.506341,0 -0.981036,0.07055 -0.25317,0.03528 -0.411401,0.03528 -0.443048,0 -0.443048,-0.3175 0,-0.3175 0.981034,-0.352778 1.012682,-0.03528 1.45573,-0.3175 0.443049,-0.3175 0.696219,-1.164168 4.082372,-12.982231 6.645722,-20.84918 0.0633,-0.423334 0.253171,-0.952501 l 0.158231,-0.635 q 0.09494,-0.388056 0.25317,-0.388056 0.09494,0 0.158232,0.211667 0.411402,1.375834 1.867131,5.750281 1.139267,3.421947 5.664688,17.18029 0.25317,0.776111 0.632925,0.987778 0.411402,0.211667 1.645608,0.246945 0.822803,0.03528 0.822803,0.352778 z m -8.607793,-8.431395 q -0.50634,-1.587501 -1.677253,-5.256392 l -1.519023,-4.833059 q -1.329144,3.880558 -3.196275,10.089451 z"
         style="font-style:normal;font-variant:normal;font-weight:normal;font-stretch:normal;font-family:'Bodoni 72 Oldstyle';-inkscape-font-specification:'Bodoni 72 Oldstyle';stroke-width:0.947132"
         id="path63" />
      <path
         d="m 96.191637,33.142518 q 0,0.282222 -0.601281,0.3175 -1.392434,0.03528 -1.867131,0.458611 -0.474697,0.423334 -0.981034,1.975557 l -1.075975,3.280836 q -3.892495,11.888619 -5.47481,18.238623 -0.09494,0.423334 -0.316465,0.423334 -0.253168,0 -1.044323,-2.645835 -1.424084,-4.833059 -2.215241,-7.267228 -0.85445,-2.681113 -2.531704,-8.008061 l -1.519022,-4.762503 q -0.316463,-0.987778 -0.696219,-1.305278 -0.379755,-0.352778 -1.265852,-0.388056 -1.044327,-0.03528 -1.234205,-0.07056 -0.221524,-0.03528 -0.221524,-0.282222 0,-0.3175 0.632926,-0.3175 h 0.284817 q 0.569633,0 1.96207,0.07055 1.424084,0.03528 2.025363,0.03528 0.158231,0 1.202559,-0.03528 1.075975,-0.07055 3.038044,-0.07055 h 0.443048 q 0.569631,0 0.569631,0.352778 0,0.388055 -1.139264,0.423333 l -1.930424,0.07056 q -0.664572,0.03528 -0.664572,0.458611 0,0.07056 0.0633,0.282223 l 0.25317,0.917222 q 0.0633,0.282223 3.069691,9.94834 0.506335,1.658057 1.930417,6.314727 5.221642,-16.474733 5.221642,-17.321401 0,-0.846667 -1.550667,-0.776111 l -0.981033,0.03528 q -0.379762,0 -0.379762,-0.282223 0,-0.352778 0.949395,-0.352778 0.189871,0 1.075969,0 0.886098,0.03528 1.297498,0.03528 h 1.012679 l 2.08866,-0.03528 q 0.569633,0 0.569633,0.282223 z"
         style="font-style:normal;font-variant:normal;font-weight:normal;font-stretch:normal;font-family:'Bodoni 72 Oldstyle';-inkscape-font-specification:'Bodoni 72 Oldstyle';stroke-width:0.947132"
         id="path65" />
      <path
         d="m 112.16676,45.278081 q 0,5.256393 -2.84816,8.890006 -2.81652,3.633614 -6.93054,3.633614 -4.367187,0 -7.341939,-3.668892 -2.974749,-3.704169 -2.974749,-9.101672 0,-5.503337 2.848165,-8.99584 2.879807,-3.52778 7.341933,-3.52778 4.20896,0 7.05713,3.668891 2.84816,3.668892 2.84816,9.101673 z m -3.54438,0.176389 q 0,-6.455837 -2.37348,-10.054173 -1.48737,-2.257779 -4.14566,-2.257779 -2.5317,0 -3.924143,1.728612 -2.563343,3.175002 -2.563343,10.336396 0,5.679726 1.772192,8.81945 1.803832,3.139724 5.031754,3.139724 3.0064,0 4.52543,-2.963335 1.67725,-3.280835 1.67725,-8.748895 z"
         style="font-style:normal;font-variant:normal;font-weight:normal;font-stretch:normal;font-family:'Bodoni 72 Oldstyle';-inkscape-font-specification:'Bodoni 72 Oldstyle';stroke-width:0.947132"
         id="path67" />
      <path
         d="m 120.25882,57.096145 q 0,0.282222 -0.37975,0.282222 h -0.31646 q -0.18988,-0.105833 -4.3039,-0.105833 -0.79116,0 -1.58231,0.07055 -0.4114,0.03528 -1.26585,0.03528 -0.4114,0 -0.4114,-0.3175 0,-0.282222 0.8228,-0.3175 1.26585,-0.03528 1.48738,-0.3175 0.22152,-0.317501 0.22152,-2.046113 V 35.82363 q 0,-1.728612 -0.15824,-1.940279 -0.18988,-0.352778 -1.74054,-0.423333 -0.60129,-0.03528 -0.60129,-0.282223 0,-0.3175 0.37977,-0.3175 l 4.27224,0.07056 q 0.4747,0 1.83549,-0.03528 l 1.20256,-0.03528 q 0.50634,0 0.50634,0.3175 0,0.282223 -1.39244,0.352778 -0.79115,0.03528 -0.98103,0.317501 -0.15823,0.282222 -0.15823,1.481667 v 18.838346 q 0,2.010835 0.15823,2.187224 0.3481,0.388056 2.05701,0.458611 0.3481,0 0.3481,0.282223 z"
         style="font-style:normal;font-variant:normal;font-weight:normal;font-stretch:normal;font-family:'Bodoni 72 Oldstyle';-inkscape-font-specification:'Bodoni 72 Oldstyle';stroke-width:0.947132"
         id="path69" />
      <path
         d="m 137.52041,56.320033 q 0,1.481668 -2.21524,1.481668 -2.46841,0 -3.86085,-2.293057 -0.60128,-0.987779 -0.79116,-1.905002 -0.15823,-0.917222 -0.50633,-4.656669 -0.18988,-2.25778 -1.2975,-3.175002 -1.10763,-0.952501 -3.60768,-1.023057 v 11.112508 q 0,0.705556 1.01268,0.881945 0.28482,0.03528 1.45573,0.07055 0.4114,0 0.4114,0.282223 0,0.3175 -0.53799,0.3175 h -0.37975 q -0.28482,-0.03528 -2.75323,-0.03528 -0.47469,0 -1.61397,0.03528 -1.10761,0 -1.45572,0 h -1.23421 q -0.69621,0 -0.69621,-0.3175 0,-0.246945 0.91774,-0.282223 1.48737,-0.03528 1.61396,-0.423333 0.12659,-0.176389 0.12659,-1.375834 V 35.541408 q 0,-1.411112 -0.28482,-1.693334 -0.25318,-0.282223 -1.61396,-0.317501 -0.79116,0 -0.79116,-0.3175 0,-0.352778 0.50634,-0.352778 0.0949,0 0.28482,0.03528 l 4.20895,0.105833 q 0.63293,0 1.77219,-0.03528 1.26585,-0.07056 1.7722,-0.07056 2.9431,0 4.65201,1.481668 1.74054,1.446389 1.74054,3.951113 0,2.469446 -1.77219,4.092225 -1.7722,1.587501 -4.81024,1.869724 -0.28482,0.03528 -0.31647,0.105833 0,0.141111 0.31647,0.141111 3.32286,0.635001 4.55707,2.610558 1.26585,1.940279 1.67725,7.05556 0.25317,2.89278 1.7722,2.89278 0.47469,0 0.47469,-0.211667 0,-0.03528 -0.0317,-0.07056 -0.15822,-0.388055 -0.15822,-0.635 0,-0.740834 0.69621,-0.740834 0.75951,0 0.75951,0.881945 z m -6.55078,-17.674178 q 0,-5.044726 -3.92415,-5.044726 -1.04433,0 -1.42408,0.3175 -0.37975,0.3175 -0.37975,1.12889 v 8.960561 q 3.03804,0.03528 4.36718,-1.234723 1.3608,-1.27 1.3608,-4.127502 z"
         style="font-style:normal;font-variant:normal;font-weight:normal;font-stretch:normal;font-family:'Bodoni 72 Oldstyle';-inkscape-font-specification:'Bodoni 72 Oldstyle';stroke-width:0.947132"
         id="path71" />
    </g>
  </g>
</svg>
