<?xml version="1.0" encoding="UTF-8" standalone="no"?>
<svg
   xmlns:dc="http://purl.org/dc/elements/1.1/"
   xmlns:cc="http://creativecommons.org/ns#"
   xmlns:rdf="http://www.w3.org/1999/02/22-rdf-syntax-ns#"
   xmlns:svg="http://www.w3.org/2000/svg"
   xmlns="http://www.w3.org/2000/svg"
   xmlns:sodipodi="http://sodipodi.sourceforge.net/DTD/sodipodi-0.dtd"
   xmlns:inkscape="http://www.inkscape.org/namespaces/inkscape"
   sodipodi:docname="lesavoir.svg"
   inkscape:version="1.0 (4035a4f, 2020-05-01)"
   id="svg119"
   version="1.1"
   viewBox="0 0 210 297"
   height="297mm"
   width="210mm">
  <defs
     id="defs113" />
  <sodipodi:namedview
     inkscape:window-maximized="0"
     inkscape:window-y="23"
     inkscape:window-x="34"
     inkscape:window-height="729"
     inkscape:window-width="1246"
     showgrid="false"
     inkscape:document-rotation="0"
     inkscape:current-layer="text10-6"
     inkscape:document-units="mm"
     inkscape:cy="266.53977"
     inkscape:cx="355.81962"
     inkscape:zoom="1.0712908"
     inkscape:pageshadow="2"
     inkscape:pageopacity="0.0"
     borderopacity="1.0"
     bordercolor="#666666"
     pagecolor="#ffffff"
     id="base" />
  <metadata
     id="metadata116">
    <rdf:RDF>
      <cc:Work
         rdf:about="">
        <dc:format>image/svg+xml</dc:format>
        <dc:type
           rdf:resource="http://purl.org/dc/dcmitype/StillImage" />
        <dc:title></dc:title>
      </cc:Work>
    </rdf:RDF>
  </metadata>
  <g
     id="layer1"
     inkscape:groupmode="layer"
     inkscape:label="Layer 1">
    <g
       aria-label="LE   SAVOIR"
       transform="translate(14.851659,-11.857426)"
       id="text10-6"
       style="font-style:normal;font-weight:normal;font-size:35.2778px;line-height:1.25;font-family:sans-serif;letter-spacing:-2.64583px;word-spacing:-0.0132292px;white-space:pre;shape-inside:url(#rect12-3);fill:#000000;fill-opacity:1;stroke:none">
      <path
         d="m 28.706133,54.591421 q 0,0.917223 -0.105833,3.033891 h -0.388056 q -0.211667,0 -1.023057,-0.07056 -0.811389,-0.07055 -1.834445,-0.07055 L 10.679176,57.378367 q -0.599722,0 -0.599722,-0.3175 0,-0.246945 0.9525,-0.3175 1.340557,-0.07056 1.587501,-0.282223 0.282223,-0.246944 0.282223,-1.340556 V 35.294463 q 0,-1.305278 -0.282223,-1.516945 -0.246944,-0.211667 -1.869723,-0.211667 -0.670278,0 -0.670278,-0.388056 0,-0.3175 0.423333,-0.3175 h 0.317501 q 1.164167,0.105834 4.621392,0.105834 0.3175,0 1.234723,-0.03528 0.917222,-0.07056 1.516945,-0.07056 h 0.388056 q 0.635,0 0.635,0.352778 0,0.211667 -0.211666,0.282223 -0.176389,0.03528 -1.199446,0.07055 -1.023056,0.03528 -1.234723,0.352778 -0.176389,0.282223 -0.176389,1.834446 v 20.813903 q 0.952501,0.03528 2.645835,0.03528 4.127503,0 5.820838,-0.423334 1.693334,-0.423334 2.293057,-1.587501 0.599722,-1.164168 0.705556,-3.139724 0.03528,-0.458612 0.423333,-0.458612 0.458612,0 0.423334,0.529167 l -0.03528,0.881945 q 0,0.07056 0,0.3175 0.03528,0.246945 0.03528,0.49389 z"
         style="font-style:normal;font-variant:normal;font-weight:normal;font-stretch:normal;font-family:'Bodoni 72 Oldstyle';-inkscape-font-specification:'Bodoni 72 Oldstyle';fill:#999999"
         id="path57" />
      <path
         d="m 46.219912,51.663363 q 0,0.141112 -0.07056,1.728613 -0.07055,1.587501 -0.07055,3.033891 v 1.164167 q -3.457225,-0.176389 -13.687787,-0.176389 -1.234723,0 -2.434169,0.03528 -1.199445,0 -1.622779,0 h -0.352778 q -0.670278,0 -0.670278,-0.3175 0,-0.211667 0.211667,-0.246945 0.105833,0 1.340556,-0.105833 0.917223,-0.07056 1.093612,-0.388056 0.211667,-0.3175 0.211667,-1.658057 V 34.906408 q 0,-1.023057 -0.3175,-1.199446 -0.282222,-0.211666 -1.905001,-0.211666 -0.564445,0 -0.564445,-0.317501 0,-0.3175 0.776111,-0.3175 l 6.032505,0.03528 q 0.3175,0 3.986391,-0.03528 3.668891,0 4.938892,0 1.058334,0 1.940279,-0.141111 0.07056,1.516945 0.317501,4.198058 l 0.141111,1.516946 q 0.03528,0.176389 0.03528,0.458611 0,0.352778 -0.317501,0.352778 -0.388055,0 -0.564444,-0.881945 -0.670279,-3.175002 -2.187224,-4.021669 -1.12889,-0.635001 -5.926671,-0.635001 h -2.89278 v 10.336396 h 0.846668 q 3.951114,0 4.797781,-0.599722 0.881945,-0.599723 1.199445,-3.492503 0.07056,-0.740834 0.388056,-0.740834 0.388056,0 0.388056,0.635001 0,0.635 -0.07056,1.869723 -0.07056,1.234723 -0.07056,1.869724 0,3.774725 0.141112,5.185837 0.03528,0.352778 0.03528,0.599722 0,0.458612 -0.388055,0.458612 -0.246945,0 -0.352778,-0.282223 -0.07056,-0.3175 -0.282223,-1.975557 -0.282222,-2.08139 -1.728612,-2.575279 -0.635001,-0.211667 -3.316113,-0.211667 h -1.587502 v 11.853341 q 7.761117,0 9.101673,-0.3175 2.328335,-0.529167 2.645835,-4.515558 0.07056,-0.881945 0.458612,-0.881945 0.352778,0 0.352778,0.740833 z"
         style="font-style:normal;font-variant:normal;font-weight:normal;font-stretch:normal;font-family:'Bodoni 72 Oldstyle';-inkscape-font-specification:'Bodoni 72 Oldstyle';fill:#999999"
         id="path59" />
      <path
         d="m 63.841742,50.499196 q 0,3.033891 -2.328335,5.185837 -2.293057,2.116668 -5.538614,2.116668 -1.905002,0 -4.550837,-1.164168 -0.705556,-0.3175 -1.058334,-0.3175 -0.423333,0 -0.529167,1.023056 -0.03528,0.529167 -0.458611,0.529167 -0.352778,0 -0.352778,-0.423333 0,-0.282223 0.03528,-0.423334 0.282223,-2.151946 0.282223,-3.986391 0,-0.352778 -0.07056,-1.975557 -0.03528,-0.211667 -0.03528,-0.564445 0,-0.529167 0.423333,-0.529167 0.352778,0 0.493889,0.846667 0.917223,6.279449 5.961949,6.279449 2.151946,0 3.316113,-1.199445 1.199445,-1.234724 1.199445,-3.457225 0,-1.975557 -1.164167,-3.351391 -1.12889,-1.411112 -3.915836,-2.786946 -3.351391,-1.658057 -4.65667,-3.21028 -1.305278,-1.552224 -1.305278,-3.845281 0,-2.928057 1.869723,-4.833059 1.905001,-1.905001 4.797781,-1.905001 1.199445,0 3.316113,0.81139 0.740834,0.282222 1.093612,0.282222 0.388056,0 0.493889,-0.141111 0.141112,-0.141111 0.246945,-0.740834 0.07056,-0.352778 0.388056,-0.352778 0.352778,0 0.352778,0.423334 0,0.282222 -0.03528,0.423333 -0.105833,0.846667 -0.105833,2.046113 0,1.693334 0.176389,2.681113 l 0.03528,0.564444 q 0.03528,0.388056 -0.3175,0.388056 -0.388056,0 -0.529167,-0.811389 -0.388056,-2.081391 -1.834445,-3.457225 -1.44639,-1.411112 -3.245558,-1.411112 -1.76389,0 -2.822224,1.12889 -1.023057,1.128889 -1.023057,3.069169 0,2.257779 1.516946,3.633613 0.846667,0.776112 3.668891,2.187224 3.316114,1.658056 4.762503,3.386669 1.44639,1.693334 1.44639,3.880558 z"
         style="font-style:normal;font-variant:normal;font-weight:normal;font-stretch:normal;font-family:'Bodoni 72 Oldstyle';-inkscape-font-specification:'Bodoni 72 Oldstyle'"
         id="path61" />
      <path
         d="m 85.045362,57.131423 q 0,0.3175 -0.529167,0.3175 -0.352778,0 -0.635,-0.03528 l -4.480281,-0.07056 -4.480281,0.07056 q -0.246944,0.03528 -0.529167,0.03528 -0.705556,0 -0.705556,-0.352778 0,-0.388056 0.952501,-0.388056 3.104447,-0.03528 3.104447,-0.635 0,-0.03528 -0.07056,-0.282223 l -0.282222,-0.952501 -0.176389,-0.493889 q -0.317501,-1.093612 -1.552224,-4.833059 h -7.549449 q -2.116668,5.644449 -2.116668,6.491116 0,0.493889 0.423333,0.599723 0.105834,0.03528 1.76389,0.141111 1.023057,0.03528 1.023057,0.352778 0,0.352778 -0.917223,0.352778 -1.622779,0 -3.774725,-0.141111 -0.529167,-0.03528 -1.093612,-0.03528 -0.564445,0 -1.093612,0.07055 -0.282222,0.03528 -0.458611,0.03528 -0.493889,0 -0.493889,-0.3175 0,-0.3175 1.093611,-0.352778 1.12889,-0.03528 1.622779,-0.3175 0.49389,-0.3175 0.776112,-1.164168 4.550836,-12.982231 7.408338,-20.84918 0.07056,-0.423334 0.282223,-0.952501 l 0.176389,-0.635 q 0.105833,-0.388056 0.282222,-0.388056 0.105834,0 0.176389,0.211667 0.458612,1.375834 2.08139,5.750281 1.270001,3.421947 6.314727,17.18029 0.282222,0.776111 0.705556,0.987778 0.458611,0.211667 1.834446,0.246945 0.917222,0.03528 0.917222,0.352778 z M 75.4498,48.700028 q -0.564444,-1.587501 -1.869723,-5.256392 l -1.693335,-4.833059 q -1.481667,3.880558 -3.563057,10.089451 z"
         style="font-style:normal;font-variant:normal;font-weight:normal;font-stretch:normal;font-family:'Bodoni 72 Oldstyle';-inkscape-font-specification:'Bodoni 72 Oldstyle'"
         id="path63" />
      <path
         d="m 99.422708,33.142518 q 0,0.282222 -0.67028,0.3175 -1.55222,0.03528 -2.08139,0.458611 -0.52917,0.423334 -1.09361,1.975557 l -1.199447,3.280836 q -4.33917,11.888619 -6.10306,18.238623 -0.10583,0.423334 -0.35278,0.423334 -0.28222,0 -1.164163,-2.645835 -1.587501,-4.833059 -2.469446,-7.267228 -0.952501,-2.681113 -2.822224,-8.008061 l -1.693335,-4.762503 q -0.352778,-0.987778 -0.776112,-1.305278 -0.423333,-0.352778 -1.411112,-0.388056 -1.164167,-0.03528 -1.375834,-0.07056 -0.246944,-0.03528 -0.246944,-0.282222 0,-0.3175 0.705556,-0.3175 h 0.3175 q 0.635,0 2.187224,0.07055 1.587501,0.03528 2.257779,0.03528 0.176389,0 1.340556,-0.03528 1.199446,-0.07055 3.386669,-0.07055 h 0.493889 q 0.634997,0 0.634997,0.352778 0,0.388055 -1.269997,0.423333 l -2.151946,0.07056 q -0.740834,0.03528 -0.740834,0.458611 0,0.07056 0.07056,0.282223 l 0.282222,0.917222 q 0.07056,0.282223 3.421947,9.94834 0.564438,1.658057 2.151938,6.314727 5.82084,-16.474733 5.82084,-17.321401 0,-0.846667 -1.72861,-0.776111 l -1.09361,0.03528 q -0.42334,0 -0.42334,-0.282223 0,-0.352778 1.05834,-0.352778 0.21166,0 1.19944,0 0.98778,0.03528 1.44639,0.03528 h 1.128887 l 2.32834,-0.03528 q 0.635,0 0.635,0.282223 z"
         style="font-style:normal;font-variant:normal;font-weight:normal;font-stretch:normal;font-family:'Bodoni 72 Oldstyle';-inkscape-font-specification:'Bodoni 72 Oldstyle'"
         id="path65" />
      <path
         d="m 117.23103,45.278081 q 0,5.256393 -3.175,8.890006 -3.13972,3.633614 -7.72584,3.633614 -4.86833,0 -8.18445,-3.668892 -3.31611,-3.704169 -3.31611,-9.101672 0,-5.503337 3.175,-8.99584 3.21028,-3.52778 8.18445,-3.52778 4.69195,0 7.86695,3.668891 3.175,3.668892 3.175,9.101673 z m -3.95111,0.176389 q 0,-6.455837 -2.64584,-10.054173 -1.65805,-2.257779 -4.62139,-2.257779 -2.82222,0 -4.37445,1.728612 -2.8575,3.175002 -2.8575,10.336396 0,5.679726 1.97556,8.81945 2.01083,3.139724 5.60917,3.139724 3.35139,0 5.04473,-2.963335 1.86972,-3.280835 1.86972,-8.748895 z"
         style="font-style:normal;font-variant:normal;font-weight:normal;font-stretch:normal;font-family:'Bodoni 72 Oldstyle';-inkscape-font-specification:'Bodoni 72 Oldstyle'"
         id="path67" />
      <path
         d="m 126.25168,57.096145 q 0,0.282222 -0.42333,0.282222 h -0.35278 q -0.21167,-0.105833 -4.79778,-0.105833 -0.88195,0 -1.76389,0.07055 -0.45861,0.03528 -1.41111,0.03528 -0.45861,0 -0.45861,-0.3175 0,-0.282222 0.91722,-0.3175 1.41111,-0.03528 1.65806,-0.3175 0.24694,-0.317501 0.24694,-2.046113 V 35.82363 q 0,-1.728612 -0.17639,-1.940279 -0.21167,-0.352778 -1.94028,-0.423333 -0.67028,-0.03528 -0.67028,-0.282223 0,-0.3175 0.42334,-0.3175 l 4.7625,0.07056 q 0.52917,0 2.04611,-0.03528 l 1.34056,-0.03528 q 0.56444,0 0.56444,0.3175 0,0.282223 -1.55222,0.352778 -0.88194,0.03528 -1.09361,0.317501 -0.17639,0.282222 -0.17639,1.481667 v 18.838346 q 0,2.010835 0.17639,2.187224 0.38805,0.388056 2.29306,0.458611 0.38805,0 0.38805,0.282223 z"
         style="font-style:normal;font-variant:normal;font-weight:normal;font-stretch:normal;font-family:'Bodoni 72 Oldstyle';-inkscape-font-specification:'Bodoni 72 Oldstyle'"
         id="path69" />
      <path
         d="m 145.49408,56.320033 q 0,1.481668 -2.46944,1.481668 -2.75167,0 -4.30389,-2.293057 -0.67028,-0.987779 -0.88195,-1.905002 -0.17639,-0.917222 -0.56444,-4.656669 -0.21167,-2.25778 -1.44639,-3.175002 -1.23473,-0.952501 -4.02167,-1.023057 v 11.112508 q 0,0.705556 1.12889,0.881945 0.3175,0.03528 1.62278,0.07055 0.45861,0 0.45861,0.282223 0,0.3175 -0.59973,0.3175 h -0.42333 q -0.3175,-0.03528 -3.06917,-0.03528 -0.52916,0 -1.79917,0.03528 -1.23472,0 -1.62277,0 h -1.37584 q -0.77611,0 -0.77611,-0.3175 0,-0.246945 1.02306,-0.282223 1.65805,-0.03528 1.79916,-0.423333 0.14112,-0.176389 0.14112,-1.375834 V 35.541408 q 0,-1.411112 -0.3175,-1.693334 -0.28223,-0.282223 -1.79917,-0.317501 -0.88195,0 -0.88195,-0.3175 0,-0.352778 0.56445,-0.352778 0.10583,0 0.3175,0.03528 l 4.69194,0.105833 q 0.70556,0 1.97556,-0.03528 1.41111,-0.07056 1.97556,-0.07056 3.28083,0 5.18584,1.481668 1.94027,1.446389 1.94027,3.951113 0,2.469446 -1.97555,4.092225 -1.97556,1.587501 -5.36223,1.869724 -0.3175,0.03528 -0.35278,0.105833 0,0.141111 0.35278,0.141111 3.70417,0.635001 5.08001,2.610558 1.41111,1.940279 1.86972,7.05556 0.28222,2.89278 1.97556,2.89278 0.52916,0 0.52916,-0.211667 0,-0.03528 -0.0353,-0.07056 -0.17638,-0.388055 -0.17638,-0.635 0,-0.740834 0.77611,-0.740834 0.84666,0 0.84666,0.881945 z m -7.3025,-17.674178 q 0,-5.044726 -4.37445,-5.044726 -1.16417,0 -1.5875,0.3175 -0.42333,0.3175 -0.42333,1.12889 v 8.960561 q 3.38667,0.03528 4.86833,-1.234723 1.51695,-1.27 1.51695,-4.127502 z"
         style="font-style:normal;font-variant:normal;font-weight:normal;font-stretch:normal;font-family:'Bodoni 72 Oldstyle';-inkscape-font-specification:'Bodoni 72 Oldstyle'"
         id="path71" />
    </g>
  </g>
</svg>
